<?xml version="1.0" encoding="utf-8"?><!DOCTYPE svg PUBLIC "-//W3C//DTD SVG 1.1//EN" "http://www.w3.org/Graphics/SVG/1.1/DTD/svg11.dtd"><svg role="img" aria-label="QR code per aprire la pagina regalo Aury Dubrovnik" xmlns="http://www.w3.org/2000/svg" width="1200" height="1200" viewBox="0 0 43 43" shape-rendering="crispEdges"><path fill="#fff9ec" d="M0 0h43v43H0z"/><path stroke="#17352f" d="M3 3.5h7m2 0h1m4 0h2m1 0h1m1 0h2m1 0h1m1 0h3m3 0h7M3 4.5h1m5 0h1m1 0h3m2 0h1m4 0h2m5 0h1m2 0h1m1 0h1m5 0h1M3 5.5h1m1 0h3m1 0h1m1 0h3m2 0h3m1 0h1m3 0h6m3 0h1m1 0h3m1 0h1M3 6.5h1m1 0h3m1 0h1m1 0h2m6 0h1m1 0h2m1 0h1m1 0h4m3 0h1m1 0h3m1 0h1M3 7.5h1m1 0h3m1 0h1m1 0h2m2 0h1m1 0h2m1 0h1m3 0h2m1 0h1m3 0h1m1 0h1m1 0h3m1 0h1M3 8.5h1m5 0h1m1 0h1m2 0h4m1 0h6m2 0h3m1 0h1m1 0h1m5 0h1M3 9.5h7m1 0h1m1 0h1m1 0h1m1 0h1m1 0h1m1 0h1m1 0h1m1 0h1m1 0h1m1 0h1m1 0h1m1 0h7M13 10.5h3m3 0h1m3 0h2m2 0h2m1 0h2M5 11.5h1m2 0h4m1 0h1m6 0h1m2 0h1m1 0h1m1 0h2m2 0h2m1 0h5M4 12.5h1m2 0h2m1 0h1m1 0h2m2 0h5m1 0h1m2 0h2m1 0h1m4 0h2m1 0h2m1 0h1M7 13.5h4m3 0h1m1 0h1m5 0h1m3 0h1m3 0h1m1 0h2m1 0h3m1 0h1M3 14.5h5m5 0h2m4 0h7m1 0h1m1 0h1m4 0h3m2 0h1M4 15.5h2m1 0h5m1 0h1m1 0h1m1 0h3m2 0h3m1 0h1m3 0h1m2 0h2m1 0h1M3 16.5h1m2 0h2m2 0h1m1 0h1m2 0h3m2 0h2m6 0h1m1 0h4m3 0h3M4 17.5h2m1 0h4m1 0h2m3 0h1m2 0h2m2 0h2m1 0h1m2 0h1m2 0h1m1 0h3m1 0h1M3 18.5h1m1 0h1m2 0h1m7 0h2m1 0h1m2 0h5m2 0h1m1 0h2m1 0h3M9 19.5h2m2 0h2m4 0h1m1 0h3m3 0h1m2 0h2m1 0h2m4 0h1M3 20.5h2m5 0h1m2 0h1m5 0h2m1 0h1m2 0h2m1 0h1m1 0h5m1 0h1m2 0h1M6 21.5h1m2 0h3m1 0h4m1 0h3m4 0h6m4 0h3m1 0h1M3 22.5h2m1 0h3m1 0h1m2 0h1m2 0h5m1 0h4m3 0h1m2 0h2m2 0h1M3 23.5h2m1 0h1m2 0h1m4 0h1m3 0h1m1 0h1m3 0h1m1 0h2m1 0h1m1 0h1m1 0h1m2 0h1m1 0h1M3 24.5h5m4 0h3m7 0h1m2 0h3m2 0h1m2 0h2m4 0h1M6 25.5h2m1 0h1m2 0h1m2 0h1m4 0h2m1 0h1m2 0h6m2 0h2m3 0h1M11 26.5h1m1 0h2m3 0h2m1 0h5m3 0h2m1 0h1m1 0h1m1 0h1m1 0h1M3 27.5h1m5 0h2m1 0h1m1 0h1m1 0h3m1 0h2m1 0h4m1 0h2m1 0h1m1 0h2m1 0h1m2 0h1M5 28.5h1m4 0h2m2 0h4m2 0h2m1 0h1m4 0h4m1 0h1m2 0h2m1 0h1M3 29.5h2m2 0h1m1 0h3m1 0h2m3 0h2m3 0h4m1 0h1m1 0h1m1 0h2m1 0h5M5 30.5h4m1 0h1m2 0h2m1 0h1m3 0h3m6 0h1m2 0h2m2 0h1m1 0h1M3 31.5h2m1 0h2m1 0h2m1 0h2m1 0h1m2 0h3m2 0h2m1 0h2m3 0h6m1 0h1M11 32.5h1m1 0h2m2 0h4m2 0h1m1 0h4m1 0h2m3 0h2m1 0h2M3 33.5h7m1 0h1m1 0h2m2 0h1m1 0h1m2 0h1m2 0h3m3 0h1m1 0h1m1 0h3m1 0h1M3 34.5h1m5 0h1m1 0h3m2 0h1m1 0h9m3 0h2m3 0h2m1 0h1M3 35.5h1m1 0h3m1 0h1m2 0h1m4 0h2m6 0h3m2 0h6m2 0h2M3 36.5h1m1 0h3m1 0h1m2 0h1m1 0h1m2 0h1m2 0h1m2 0h1m3 0h2m1 0h1m4 0h1m1 0h1m1 0h1M3 37.5h1m1 0h3m1 0h1m1 0h1m1 0h1m2 0h1m3 0h1m1 0h2m3 0h2m1 0h2m3 0h1m1 0h3M3 38.5h1m5 0h1m7 0h11m1 0h1m1 0h1m2 0h3M3 39.5h7m3 0h1m1 0h1m6 0h4m1 0h1m3 0h2m3 0h1m2 0h1"/><g id="travel-heart-mark" transform="translate(17.2 17.2) scale(0.035833)">
  <rect width="240" height="240" rx="52" fill="#fff9ec"/>
  <rect x="12" y="12" width="216" height="216" rx="44" fill="#17352f"/>
  <path d="M62 128c34 32 58 48 58 48s24-16 58-48c24-23 25-58 1-75-20-14-44-8-59 11-15-19-39-25-59-11-24 17-23 52 1 75Z" fill="#f3d39d"/>
  <path d="M73 124 168 72l-25 84-31-27-39-5Z" fill="none" stroke="#fff9ec" stroke-width="10" stroke-linecap="round" stroke-linejoin="round"/>
  <path d="m112 129 56-57" stroke="#fff9ec" stroke-width="10" stroke-linecap="round"/>
</g></svg>
